<svg width="429" height="70.74312438895262" viewBox="0 0 347.4078990454526 57.288392111601745" class="looka-1j8o68f"><defs id="SvgjsDefs2892"></defs><g id="SvgjsG2893" featurekey="UFHKJ9-0" transform="matrix(0.9363878311339677,0,0,0.9363878311339677,-14.992508836271025,-17.81765048314657)" fill="#ff5722"><g xmlns="http://www.w3.org/2000/svg"><path fill-rule="evenodd" clip-rule="evenodd" d="M80.807,20.096v1.348c0,0.351-0.287,0.637-0.637,0.637h-3.52   c-0.35,0-0.637-0.286-0.637-0.637v-1.348h-1.609v5.048c-0.344,0.901-1.213,1.549-2.232,1.549H27.993   c-1.318,0-2.396-1.078-2.396-2.396v-0.524h-0.001v-3.677h-1.609v1.348c0,0.351-0.287,0.637-0.637,0.637h-3.52   c-0.351,0-0.637-0.286-0.637-0.637v-1.348h-3.182v59.808h3.182v-1.348c0-0.352,0.286-0.637,0.637-0.637h3.52   c0.35,0,0.637,0.285,0.637,0.637v1.348h1.609v-3.779h0.001v-0.422c0-1.318,1.078-2.396,2.396-2.396h44.179   c1.02,0,1.889,0.646,2.232,1.549v5.049h1.609v-1.348c0-0.352,0.287-0.637,0.637-0.637h3.52c0.35,0,0.637,0.285,0.637,0.637v1.348   h3.182V20.096H80.807z M23.986,71.283c0,0.352-0.287,0.637-0.637,0.637h-3.52c-0.351,0-0.637-0.285-0.637-0.637v-2.695   c0-0.35,0.286-0.637,0.637-0.637h3.52c0.35,0,0.637,0.287,0.637,0.637V71.283z M23.986,61.316c0,0.35-0.287,0.637-0.637,0.637   h-3.52c-0.351,0-0.637-0.287-0.637-0.637v-2.697c0-0.35,0.286-0.635,0.637-0.635h3.52c0.35,0,0.637,0.285,0.637,0.635V61.316z    M23.986,51.348c0,0.35-0.287,0.637-0.637,0.637h-3.52c-0.351,0-0.637-0.287-0.637-0.637v-2.696c0-0.35,0.286-0.637,0.637-0.637   h3.52c0.35,0,0.637,0.287,0.637,0.637V51.348z M23.986,41.38c0,0.35-0.287,0.636-0.637,0.636h-3.52   c-0.351,0-0.637-0.286-0.637-0.636v-2.696c0-0.351,0.286-0.637,0.637-0.637h3.52c0.35,0,0.637,0.286,0.637,0.637V41.38z    M23.986,31.412c0,0.351-0.287,0.637-0.637,0.637h-3.52c-0.351,0-0.637-0.286-0.637-0.637v-2.695c0-0.351,0.286-0.637,0.637-0.637   h3.52c0.35,0,0.637,0.286,0.637,0.637V31.412z M72.172,69.693H27.993c-1.318,0-2.396-1.078-2.396-2.396h-0.001V32.6h0.012   c0.055-1.271,1.103-2.294,2.386-2.294h44.179c1.029,0,1.898,0.664,2.232,1.581v36.257C74.061,69.047,73.191,69.693,72.172,69.693z    M80.807,71.283c0,0.352-0.287,0.637-0.637,0.637h-3.52c-0.311,0-0.559-0.23-0.613-0.525v-2.916   c0.055-0.297,0.303-0.527,0.613-0.527h3.52c0.35,0,0.637,0.287,0.637,0.637V71.283z M80.807,61.316c0,0.35-0.287,0.637-0.637,0.637   h-3.52c-0.35,0-0.637-0.287-0.637-0.637v-2.697c0-0.35,0.287-0.635,0.637-0.635h3.52c0.35,0,0.637,0.285,0.637,0.635V61.316z    M80.807,51.348c0,0.35-0.287,0.637-0.637,0.637h-3.52c-0.35,0-0.637-0.287-0.637-0.637v-2.696c0-0.35,0.287-0.637,0.637-0.637   h3.52c0.35,0,0.637,0.287,0.637,0.637V51.348z M80.807,41.38c0,0.35-0.287,0.636-0.637,0.636h-3.52   c-0.35,0-0.637-0.286-0.637-0.636v-2.696c0-0.351,0.287-0.637,0.637-0.637h3.52c0.35,0,0.637,0.286,0.637,0.637V41.38z    M80.807,31.412c0,0.351-0.287,0.637-0.637,0.637h-3.52c-0.311,0-0.559-0.23-0.613-0.526v-2.916   c0.055-0.296,0.303-0.526,0.613-0.526h3.52c0.35,0,0.637,0.286,0.637,0.637V31.412z"></path><polygon fill-rule="evenodd" clip-rule="evenodd" points="44.618,41.48 44.618,50 44.618,58.52 51.832,54.26 59.047,50    51.832,45.74  "></polygon></g></g><g id="SvgjsG2894" featurekey="nameLeftFeature-0" transform="matrix(3.8192261407734494,0,0,3.8192261407734494,76.3615477184531,-19.096130703867246)" fill="#eeeeee"><path d="M5.5 14.5 l0 5.5 l-3.5 0 l0 -15 l8.5 0 l0 3.5 l-5 0 l0 2.5 l4 0 l0 3.5 l-4 0 z M2.5 5.5 l0 14 l1 0 l0 -7 l5.5 0 l0 -1 l-5.5 0 l0 -5 l6.5 0 l0 -1 l-7.5 0 z M10 7 l-5.66 0 l1.06 1 l4.6 0 l0 -1 z M4 11 l1 0 l0 -2.66 l-1 -0.98 l0 3.64 z M9 13 l-4.66 0 l1.06 1 l3.6 0 l0 -1 z M5 19.5 l0 -5.16 l-1 -0.98 l0 6.14 l1 0 z M18 5 l0 15 l-3.5 0 l0 -15 l3.5 0 z M15 19.5 l1 0 l0 -14 l-1 0 l0 14 z M16.5 19.5 l1 0 l0 -14 l-1 0 l0 14 z M25.5 5 l0 11.5 l4.5 0 l0 3.5 l-8 0 l0 -15 l3.5 0 z M22.5 18 l7 0 l0 -1 l-6 0 l0 -11.5 l-1 0 l0 12.5 z M24 16.5 l1 0 l0 -11 l-1 0 l0 11 z M29.5 18.5 l-7 0 l0 1 l7 0 l0 -1 z"></path></g><g id="SvgjsG2895" featurekey="nameRightFeature-0" transform="matrix(3.956380795765825,0,0,3.956380795765825,193.10904801058544,-20.81056389127194)" fill="#eeeeee"><path d="M7.64 16.66 l-4.14 -7.42 l0 10.26 l-1 0 l0 -14 l6.3 11.16 l-1.16 0 z M14 19.5 l-1 0 l0 -10.26 l-3.9 6.9 l-6 -10.64 l1.14 0 l4.86 8.66 l4.9 -8.66 l0 14 z M12.26 5.5 l1.14 0 l-4.3 7.6 l-0.56 -0.94 z M5 19.5 l-1 0 l0 -8.34 l1 1.74 l0 6.6 z M11.5 19.5 l0 -6.6 l1 -1.74 l0 8.34 l-1 0 z M25.5 11.5 l0 1 l-5.5 0 l0 4.5 l6.5 0 l0 1 l-7.5 0 l0 -12.5 l7.5 0 l0 1 l-6.5 0 l0 5 l5.5 0 z M26.5 8 l-4.6 0 l-1.06 -1 l5.66 0 l0 1 z M20.5 7.359999999999999 l1 0.98 l0 2.66 l-1 0 l0 -3.64 z M25.5 14 l-3.6 0 l-1.06 -1 l4.66 0 l0 1 z M20.5 13.36 l1 0.98 l0 2.16 l-1 0 l0 -3.14 z M26.5 19.5 l-7.5 0 l0 -1 l7.5 0 l0 1 z M33 15.4 c0 1.04 0.74 1.86 1.76 1.86 c0.98 0 1.74 -0.82 1.74 -1.86 l0 -0.24 c0 -1.12 -0.76 -1.9 -1.74 -1.9 c-2.32 0 -4.02 -1.7 -4.02 -3.9 l0 -0.26 c0 -2.2 1.7 -3.84 4.02 -3.84 c2.28 0 3.98 1.64 3.98 3.84 l-0.98 0 c0 -1.6 -1.32 -2.86 -3 -2.86 c-1.72 0 -3 1.26 -3 2.86 l0 0.26 c0 1.64 1.28 2.88 3 2.88 c1.54 0 2.74 1.26 2.74 2.92 l0 0.24 c0 1.6 -1.2 2.84 -2.74 2.84 c-1.56 0 -2.76 -1.24 -2.76 -2.84 l1 0 z M34.76 7.74 c-0.36 0 -0.72 0.12 -0.9 0.26 l-0.76 -0.7 c0.4 -0.3 1.1 -0.54 1.66 -0.54 c1.38 0 2.48 0.98 2.48 2.34 l-0.98 0 c0 -0.76 -0.66 -1.36 -1.5 -1.36 z M33.26 9.36 c0 0.78 0.64 1.38 1.5 1.38 c2.4 0 4.24 1.92 4.24 4.42 l0 0.24 c0 1.16 -0.5 2.2 -1.16 3 l-0.74 -0.7 c0.5 -0.66 0.9 -1.64 0.9 -2.3 l0 -0.24 c0 -1.96 -1.4 -3.4 -3.24 -3.4 c-1.42 0 -2.52 -1.06 -2.52 -2.4 l0 -0.26 c0 -0.46 0.2 -1.1 0.5 -1.44 l0.76 0.74 c-0.16 0.24 -0.24 0.54 -0.24 0.7 l0 0.26 z M31.5 15.4 c0 1.9 1.4 3.36 3.26 3.36 c0.68 0 1.54 -0.3 1.98 -0.7 l0.76 0.74 c-0.64 0.56 -1.8 0.94 -2.74 0.94 c-2.4 0 -4.26 -1.84 -4.26 -4.34 l1 0 z"></path></g></svg>